<svg width="48" height="48" xmlns="http://www.w3.org/2000/svg">
 <title/>

 <desc/>
 <g>
  <title>background</title>
  <rect fill="none" id="canvas_background" height="402" width="582" y="-1" x="-1"/>
 </g>
 <g>
  <title>Layer 1</title>
  <path id="next1" fill="#ffffff" d="m0.032132,4.396813c0,-0.476184 0.204657,-0.936663 0.577034,-1.298154c0.861418,-0.836458 2.37455,-0.933376 3.379552,-0.216359l27.475345,19.600769c0.093187,0.066477 0.180084,0.138798 0.259956,0.216358c0.86149,0.83658 0.745119,2.095894 -0.259956,2.81291l-27.475345,19.600769c-0.434404,0.309986 -0.987667,0.480328 -1.5598,0.480328c-1.323689,0 -2.396786,-0.8932 -2.396786,-1.994843l0,-39.201778zm42.926459,-4.337165c-1.207981,0 -2.181084,0.825866 -2.181084,1.843253l0,44.189606c0,1.0214 0.973103,1.84325 2.181084,1.84325l2.82819,0c1.207973,0 2.181084,-0.82185 2.181084,-1.84325l0,-44.189606c0,-1.017387 -0.97311,-1.843253 -2.181084,-1.843253l-2.82819,0z"/>
 </g>
</svg>