<?xml version="1.0" encoding="UTF-8" standalone="no"?>
<!DOCTYPE svg PUBLIC "-//W3C//DTD SVG 1.1//EN" "http://www.w3.org/Graphics/SVG/1.1/DTD/svg11.dtd">
<svg width="100%" height="100%" viewBox="0 0 512 512" version="1.1" xmlns="http://www.w3.org/2000/svg" xmlns:xlink="http://www.w3.org/1999/xlink" xml:space="preserve" xmlns:serif="http://www.serif.com/" style="fill-rule:evenodd;clip-rule:evenodd;stroke-linejoin:round;stroke-miterlimit:2;">
    <g>
        <rect id="canvas_background" x="-1" y="-1" width="582" height="402" style="fill:none;"/>
    </g>
    <g transform="matrix(1.33333,0,0,1.33333,-85.3333,-85.3333)">
        <path id="svg_2" d="M224,435.8L224,76.1C224,69.4 218.6,64 211.8,64L140.2,64C133.4,64 128,69.4 128,76.1L128,435.8C128,442.5 133.4,448 140.2,448L211.8,448C218.6,448 224,442.6 224,435.8Z" style="fill:white;fill-rule:nonzero;"/>
        <path id="svg_3" d="M371.8,64L300.2,64C293.5,64 288,69.4 288,76.1L288,435.8C288,442.5 293.4,448 300.2,448L371.8,448C378.5,448 384,442.6 384,435.8L384,76.1C384,69.4 378.6,64 371.8,64Z" style="fill:white;fill-rule:nonzero;"/>
    </g>
</svg>
