<svg width="32" height="32" xmlns="http://www.w3.org/2000/svg">

 <g>
  <title>background</title>
  <rect fill="none" id="canvas_background" height="402" width="582" y="-1" x="-1"/>
 </g>
 <g>
  <title>Layer 1</title>
  <path fill="#ffffff" id="svg_2" d="m4.993,2.496c-0.477,-0.273 -0.993,-0.046 -0.993,0.504l0,26c0,0.549999 0.516,0.777 0.993,0.504l22.826,-13.007999c0.478001,-0.273001 0.445999,-0.719 -0.031,-0.992001l-22.795,-13.008z"/>
  <path fill="#ffffff" id="svg_3" d="m4.585,30.620001l0,0c-0.904,0 -1.585,-0.697001 -1.585,-1.620001l0,-26c0,-0.923 0.681,-1.62 1.585,-1.62c0.309,0 0.621,0.085 0.904,0.248l22.794001,13.007c0.558998,0.319 0.877998,0.823 0.877998,1.382c0,0.548 -0.309,1.039 -0.847,1.347l-22.825999,13.008999c-0.282,0.161001 -0.594,0.247002 -0.903,0.247002zm0.415,-26.969001l0,24.698001l21.655001,-12.34l-21.655001,-12.358001z"/>
 </g>
</svg>