<?xml version="1.0" encoding="UTF-8" standalone="no"?>
<!DOCTYPE svg PUBLIC "-//W3C//DTD SVG 1.1//EN" "http://www.w3.org/Graphics/SVG/1.1/DTD/svg11.dtd">
<svg width="100%" height="100%" viewBox="0 0 24 24" version="1.1" xmlns="http://www.w3.org/2000/svg" xmlns:xlink="http://www.w3.org/1999/xlink" xml:space="preserve" xmlns:serif="http://www.serif.com/" style="fill-rule:evenodd;clip-rule:evenodd;stroke-linejoin:round;stroke-miterlimit:2;">
    <g id="iconfinder-icon-1-.svg" serif:id="iconfinder-icon(1).svg" transform="matrix(0.103526,0,0,0.103526,19.0308,18.9692)">
        <g transform="matrix(1,0,0,1,-48,-48)">
            <clipPath id="_clip1">
                <rect x="0" y="0" width="96" height="96"/>
            </clipPath>
            <g clip-path="url(#_clip1)">
                <g>
                    <rect id="canvas_background" x="-1" y="-1" width="582" height="402" style="fill:none;"/>
                </g>
                <g>
                    <path id="svg_1" d="M48,4C23.7,4 4,23.7 4,48C4,72.301 23.7,92 48,92C72.301,92 92,72.301 92,48C92,23.7 72.301,4 48,4ZM48,84C28.118,84 12,67.882 12,48C12,28.118 28.118,12 48,12C67.882,12 84,28.118 84,48C84,67.882 67.882,84 48,84Z" style="fill:white;fill-rule:nonzero;"/>
                    <path id="svg_2" d="M52,46.343L52,24C52,21.791 50.209,20 48,20C45.791,20 44,21.791 44,24L44,48C44,48.009 44.003,48.018 44.003,48.027C44.004,48.28 44.029,48.533 44.079,48.782C44.103,48.905 44.148,49.016 44.183,49.136C44.222,49.268 44.252,49.402 44.305,49.531C44.363,49.669 44.441,49.795 44.513,49.925C44.567,50.025 44.61,50.125 44.673,50.22C44.82,50.441 44.987,50.648 45.174,50.833L56.485,62.145C58.047,63.707 60.582,63.707 62.143,62.145C63.705,60.583 63.705,58.048 62.143,56.489L52,46.343L52,46.343Z" style="fill:white;fill-rule:nonzero;"/>
                </g>
            </g>
        </g>
    </g>
    <g>
        <rect x="0" y="0" width="24" height="24" style="fill:none;"/>
        <rect x="0" y="0" width="24" height="24" style="fill:none;"/>
    </g>
    <g transform="matrix(0.757399,0,0,0.757399,-1.05279,-1.5148)">
        <path d="M12,4.14L18,6.39L18,11.09C18,12.28 17.77,13.45 17.36,14.53L18.87,16.04C19.59,14.51 20,12.82 20,11.09L20,5L12,2L6.78,3.96L8.33,5.51L12,4.14ZM2.81,2.81L1.39,4.22L4,6.83L4,11.09C4,16.14 7.41,20.85 12,22C13.72,21.57 15.28,20.64 16.55,19.38L19.78,22.61L21.19,21.2L2.81,2.81ZM12,19.92C8.55,18.79 6,15.1 6,11.09L6,8.83L15.14,17.97C14.24,18.85 13.17,19.54 12,19.92Z" style="fill:white;fill-rule:nonzero;"/>
    </g>
</svg>
