<?xml version="1.0" encoding="UTF-8" standalone="no"?>
<!DOCTYPE svg PUBLIC "-//W3C//DTD SVG 1.1//EN" "http://www.w3.org/Graphics/SVG/1.1/DTD/svg11.dtd">
<svg width="100%" height="100%" viewBox="0 0 96 96" version="1.1" xmlns="http://www.w3.org/2000/svg" xmlns:xlink="http://www.w3.org/1999/xlink" xml:space="preserve" xmlns:serif="http://www.serif.com/" style="fill-rule:evenodd;clip-rule:evenodd;stroke-linejoin:round;stroke-miterlimit:2;">
    <g>
        <rect id="canvas_background" x="-1" y="-1" width="582" height="402" style="fill:none;"/>
    </g>
    <g transform="matrix(0.682292,0,0,0.682292,0,0)">
        <path id="svg_1" d="M48,0C21.668,0 -0,21.668 0,48C0,74.332 21.668,96 48,96C74.332,96 96,74.332 96,48C95.972,21.679 74.321,0.028 48,0ZM48,12C55.464,12.011 62.74,14.363 68.799,18.721L18.717,68.794C14.349,62.699 12,55.386 12,47.888C12,28.201 28.2,12 47.888,12C47.926,12 47.963,12 48,12ZM48,84C40.536,83.989 33.26,81.637 27.201,77.279L77.283,27.206C81.651,33.301 84,40.614 84,48.112C84,67.799 67.8,84 48.112,84C48.074,84 48.037,84 48,84Z" style="fill:white;fill-rule:nonzero;"/>
    </g>
    <g id="iconfinder-icon-1-.svg" serif:id="iconfinder-icon(1).svg" transform="matrix(0.416667,0,0,0.416667,76,76)">
        <g transform="matrix(1,0,0,1,-48,-48)">
            <clipPath id="_clip1">
                <rect x="0" y="0" width="96" height="96"/>
            </clipPath>
            <g clip-path="url(#_clip1)">
                <g>
                    <rect id="canvas_background1" serif:id="canvas_background" x="-1" y="-1" width="582" height="402" style="fill:none;"/>
                </g>
                <g>
                    <path id="svg_11" serif:id="svg_1" d="M48,4C23.7,4 4,23.7 4,48C4,72.301 23.7,92 48,92C72.301,92 92,72.301 92,48C92,23.7 72.301,4 48,4ZM48,84C28.118,84 12,67.882 12,48C12,28.118 28.118,12 48,12C67.882,12 84,28.118 84,48C84,67.882 67.882,84 48,84Z" style="fill:white;fill-rule:nonzero;"/>
                    <path id="svg_2" d="M52,46.343L52,24C52,21.791 50.209,20 48,20C45.791,20 44,21.791 44,24L44,48C44,48.009 44.003,48.018 44.003,48.027C44.004,48.28 44.029,48.533 44.079,48.782C44.103,48.905 44.148,49.016 44.183,49.136C44.222,49.268 44.252,49.402 44.305,49.531C44.363,49.669 44.441,49.795 44.513,49.925C44.567,50.025 44.61,50.125 44.673,50.22C44.82,50.441 44.987,50.648 45.174,50.833L56.485,62.145C58.047,63.707 60.582,63.707 62.143,62.145C63.705,60.583 63.705,58.048 62.143,56.489L52,46.343L52,46.343Z" style="fill:white;fill-rule:nonzero;"/>
                </g>
            </g>
        </g>
    </g>
</svg>
