<?xml version="1.0" encoding="UTF-8" standalone="no"?><!DOCTYPE svg PUBLIC "-//W3C//DTD SVG 1.1//EN" "http://www.w3.org/Graphics/SVG/1.1/DTD/svg11.dtd"><svg width="100%" height="100%" viewBox="0 0 16 16" version="1.1" xmlns="http://www.w3.org/2000/svg" xmlns:xlink="http://www.w3.org/1999/xlink" xml:space="preserve" xmlns:serif="http://www.serif.com/" style="fill-rule:evenodd;clip-rule:evenodd;stroke-linejoin:round;stroke-miterlimit:2;"><g><rect id="canvas_background" x="-1" y="-1" width="582" height="402" style="fill:none;"/></g><g><g><path d="M1.683,5.806c-0.605,0 -1.097,0.492 -1.097,1.097l0,2.194c0,0.605 0.492,1.097 1.097,1.097l12.634,-0c0.605,-0 1.097,-0.492 1.097,-1.097l-0,-2.194c-0,-0.605 -0.492,-1.097 -1.097,-1.097l-12.634,0Z" style="fill:#fff;"/><path d="M10.051,1.826c-0,-0.605 -0.492,-1.097 -1.097,-1.097l-2.194,0c-0.605,0 -1.097,0.492 -1.097,1.097l0,12.348c0,0.605 0.492,1.097 1.097,1.097l2.194,-0c0.605,-0 1.097,-0.492 1.097,-1.097l-0,-12.348Z" style="fill:#fff;"/></g></g></svg>