<?xml version="1.0" encoding="UTF-8" standalone="no"?><!DOCTYPE svg PUBLIC "-//W3C//DTD SVG 1.1//EN" "http://www.w3.org/Graphics/SVG/1.1/DTD/svg11.dtd"><svg width="100%" height="100%" viewBox="0 0 16 16" version="1.1" xmlns="http://www.w3.org/2000/svg" xmlns:xlink="http://www.w3.org/1999/xlink" xml:space="preserve" xmlns:serif="http://www.serif.com/" style="fill-rule:evenodd;clip-rule:evenodd;stroke-linejoin:round;stroke-miterlimit:2;"><g><rect id="canvas_background" x="-1" y="-1" width="582" height="402" style="fill:none;"/></g><g><g><path d="M4.341,1.866c-0.341,-0.341 -0.896,-0.341 -1.237,0l-1.238,1.238c-0.341,0.341 -0.341,0.896 0,1.237l9.793,9.793c0.341,0.341 0.896,0.341 1.237,-0l1.238,-1.238c0.341,-0.341 0.341,-0.896 -0,-1.237l-9.793,-9.793Z" style="fill:#fff;"/><path d="M14.134,4.341c0.341,-0.341 0.341,-0.896 -0,-1.237l-1.238,-1.238c-0.341,-0.341 -0.896,-0.341 -1.237,0l-9.793,9.793c-0.341,0.341 -0.341,0.896 0,1.237l1.238,1.238c0.341,0.341 0.896,0.341 1.237,-0l9.793,-9.793Z" style="fill:#fff;"/></g></g></svg>