<?xml version="1.0" encoding="UTF-8" standalone="no"?><!DOCTYPE svg PUBLIC "-//W3C//DTD SVG 1.1//EN" "http://www.w3.org/Graphics/SVG/1.1/DTD/svg11.dtd"><svg width="100%" height="100%" viewBox="0 0 124 124" version="1.1" xmlns="http://www.w3.org/2000/svg" xmlns:xlink="http://www.w3.org/1999/xlink" xml:space="preserve" xmlns:serif="http://www.serif.com/" style="fill-rule:evenodd;clip-rule:evenodd;stroke-linejoin:round;stroke-miterlimit:2;"><g><path d="M52.5,19c0,-2.76 -2.24,-5 -5,-5c-2.76,0 -5,2.24 -5,5l0,86c0,2.76 2.24,5 5,5c2.76,0 5,-2.24 5,-5l0,-86Z" style="fill:#fff;"/><path d="M81.5,19c0,-2.76 -2.24,-5 -5,-5c-2.76,0 -5,2.24 -5,5l0,86c0,2.76 2.24,5 5,5c2.76,0 5,-2.24 5,-5l0,-86Z" style="fill:#fff;"/></g><g><path d="M19,43c-2.76,0 -5,2.24 -5,5c0,2.76 2.24,5 5,5l86,0c2.76,0 5,-2.24 5,-5c0,-2.76 -2.24,-5 -5,-5l-86,0Z" style="fill:#fff;"/><path d="M19,71c-2.76,0 -5,2.24 -5,5c0,2.76 2.24,5 5,5l86,0c2.76,0 5,-2.24 5,-5c0,-2.76 -2.24,-5 -5,-5l-86,0Z" style="fill:#fff;"/></g></svg>