<?xml version="1.0" encoding="UTF-8" standalone="no"?><!DOCTYPE svg PUBLIC "-//W3C//DTD SVG 1.1//EN" "http://www.w3.org/Graphics/SVG/1.1/DTD/svg11.dtd"><svg width="100%" height="100%" viewBox="0 0 124 124" version="1.1" xmlns="http://www.w3.org/2000/svg" xmlns:xlink="http://www.w3.org/1999/xlink" xml:space="preserve" xmlns:serif="http://www.serif.com/" style="fill-rule:evenodd;clip-rule:evenodd;stroke-linejoin:round;stroke-miterlimit:2;"><path d="M95.231,19.288c-0,-2.918 -2.37,-5.288 -5.288,-5.288l-55.886,-0c-2.918,-0 -5.288,2.37 -5.288,5.288l0,85.424c0,2.918 2.37,5.288 5.288,5.288l55.886,0c2.918,0 5.288,-2.37 5.288,-5.288l-0,-85.424Z" style="fill:#fff;"/><path d="M78.54,28.376c0,-0.668 -0.542,-1.211 -1.21,-1.211l-41.548,0c-0.668,0 -1.211,0.543 -1.211,1.211l0,2.422c0,0.668 0.543,1.21 1.211,1.21l41.548,0c0.668,0 1.21,-0.542 1.21,-1.21l0,-2.422Z" style="fill:#7289da;"/><path d="M88.099,39.209c-0,-0.668 -0.543,-1.211 -1.211,-1.211l-51.106,0c-0.668,0 -1.211,0.543 -1.211,1.211l0,2.422c0,0.668 0.543,1.21 1.211,1.21l51.106,0c0.668,0 1.211,-0.542 1.211,-1.21l-0,-2.422Z" style="fill:#7289da;"/><path d="M75.099,50.042c0,-0.668 -0.542,-1.211 -1.21,-1.211l-38.107,0c-0.668,0 -1.211,0.543 -1.211,1.211l0,2.422c0,0.668 0.543,1.21 1.211,1.21l38.107,0c0.668,0 1.21,-0.542 1.21,-1.21l0,-2.422Z" style="fill:#7289da;"/><path d="M78.54,60.911c0,-0.668 -0.542,-1.211 -1.21,-1.211l-41.548,-0c-0.668,-0 -1.211,0.543 -1.211,1.211l0,2.421c0,0.668 0.543,1.211 1.211,1.211l41.548,-0c0.668,-0 1.21,-0.543 1.21,-1.211l0,-2.421Z" style="fill:#7289da;"/></svg>