<?xml version="1.0" encoding="UTF-8" standalone="no"?><!DOCTYPE svg PUBLIC "-//W3C//DTD SVG 1.1//EN" "http://www.w3.org/Graphics/SVG/1.1/DTD/svg11.dtd"><svg width="100%" height="100%" viewBox="0 0 124 124" version="1.1" xmlns="http://www.w3.org/2000/svg" xmlns:xlink="http://www.w3.org/1999/xlink" xml:space="preserve" xmlns:serif="http://www.serif.com/" style="fill-rule:evenodd;clip-rule:evenodd;stroke-linejoin:round;stroke-miterlimit:2;"><g id="Download"><g><path d="M76,19.5c0,-3.036 -2.464,-5.5 -5.5,-5.5l-11,0c-3.036,0 -5.5,2.464 -5.5,5.5l0,51.602c0,3.036 2.464,5.5 5.5,5.5l11,0c3.036,0 5.5,-2.464 5.5,-5.5l0,-51.602Z" style="fill:#fff;"/><path d="M65,96l-37.5,-36.151l75,0l-37.5,36.151Z" style="fill:#fff;"/></g><path d="M110,108.5c0,-0.828 -0.672,-1.5 -1.5,-1.5l-93,0c-0.828,0 -1.5,0.672 -1.5,1.5c0,0.828 0.672,1.5 1.5,1.5l93,0c0.828,0 1.5,-0.672 1.5,-1.5Z" style="fill:#fff;"/></g></svg>