<?xml version="1.0" encoding="UTF-8" standalone="no"?>
<!DOCTYPE svg PUBLIC "-//W3C//DTD SVG 1.1//EN" "http://www.w3.org/Graphics/SVG/1.1/DTD/svg11.dtd">
<svg width="100%" height="100%" viewBox="0 0 500 500" version="1.1" xmlns="http://www.w3.org/2000/svg" xmlns:xlink="http://www.w3.org/1999/xlink" xml:space="preserve" xmlns:serif="http://www.serif.com/" style="fill-rule:evenodd;clip-rule:evenodd;stroke-linejoin:round;stroke-miterlimit:2;">
    <g id="Layer-1" serif:id="Layer 1" transform="matrix(1,0,0,1,-6.00041,-6.00008)">
        <g transform="matrix(-282.172,350.237,350.237,282.172,414.946,92.9152)">
            <path d="M0.843,-0.262C0.932,-0.121 0.927,0.065 0.818,0.202C0.679,0.376 0.423,0.402 0.25,0.262L0.245,0.259C0.189,0.213 0.18,0.131 0.225,0.075L0.367,-0.101C0.414,-0.158 0.498,-0.167 0.555,-0.121L0.331,0.157C0.331,0.157 0.378,0.19 0.401,0.199C0.508,0.244 0.636,0.215 0.712,0.12C0.805,0.005 0.787,-0.165 0.671,-0.257C0.555,-0.349 0.387,-0.328 0.294,-0.213C0.296,-0.216 0.298,-0.219 0.3,-0.221C0.449,-0.406 0.635,-0.391 0.843,-0.262Z" style="fill:white;fill-rule:nonzero;"/>
        </g>
        <g transform="matrix(-381.762,93.4547,93.4547,381.762,442.857,53.8272)">
            <path d="M0.471,-0.058C0.667,-0.106 0.867,-0.02 0.971,0.141C0.907,0.057 0.756,-0.054 0.534,0C0.534,0 0.359,0.037 0.27,0.065C0.178,0.093 0.078,0.101 0.029,0.05L0.471,-0.058Z" style="fill:white;fill-rule:nonzero;"/>
        </g>
    </g>
</svg>
