<?xml version="1.0" encoding="UTF-8" standalone="no"?>
<!DOCTYPE svg PUBLIC "-//W3C//DTD SVG 1.1//EN" "http://www.w3.org/Graphics/SVG/1.1/DTD/svg11.dtd">
<svg width="100%" height="100%" viewBox="0 0 124 124" version="1.1" xmlns="http://www.w3.org/2000/svg" xmlns:xlink="http://www.w3.org/1999/xlink" xml:space="preserve" xmlns:serif="http://www.serif.com/" style="fill-rule:evenodd;clip-rule:evenodd;stroke-linejoin:round;stroke-miterlimit:2;">
    <g transform="matrix(0.707107,0.707107,-0.707107,0.707107,50.9116,-14.5928)">
        <g transform="matrix(1,0,0,1,-1.29289,-11.6662)">
            <path d="M95,23.5C95,19.361 91.639,16 87.5,16L40.5,16C36.361,16 33,19.361 33,23.5L33,38.5C33,42.639 36.361,46 40.5,46L87.5,46C91.639,46 95,42.639 95,38.5L95,23.5Z" style="fill:rgb(236,255,255);"/>
        </g>
        <g transform="matrix(1,0,0,1.06647,8.29289,-6.64548)">
            <path d="M59,51.813C59,50.26 57.656,49 56,49L50,49C48.344,49 47,50.26 47,51.813L47,107.187C47,108.74 48.344,110 50,110L56,110C57.656,110 59,108.74 59,107.187L59,51.813Z" style="fill:rgb(236,255,255);"/>
        </g>
    </g>
</svg>
