<?xml version="1.0" encoding="UTF-8" standalone="no"?>
<!DOCTYPE svg PUBLIC "-//W3C//DTD SVG 1.1//EN" "http://www.w3.org/Graphics/SVG/1.1/DTD/svg11.dtd">
<svg width="100%" height="100%" viewBox="0 0 1000 1000" version="1.1" xmlns="http://www.w3.org/2000/svg" xmlns:xlink="http://www.w3.org/1999/xlink" xml:space="preserve" xmlns:serif="http://www.serif.com/" style="fill-rule:evenodd;clip-rule:evenodd;stroke-linejoin:round;stroke-miterlimit:2;">
    <g transform="matrix(1.34725,0,0,1.34725,-173.83,-166.622)">
        <path id="Fill-3" d="M614.6,604.2C585.9,604.2 562.5,580.8 562.5,552.1C562.5,523.4 585.9,500 614.6,500C643.3,500 666.7,523.4 666.7,552.1C666.7,580.8 643.3,604.2 614.6,604.2M623.8,689.7C588.2,725.2 520.1,728 500.1,728C480.1,728 411.9,725.2 376.4,689.7C371.1,684.4 371.1,675.9 376.4,670.6C381.7,665.3 390.2,665.3 395.5,670.6C417.9,693 465.8,701 500.1,701C534.3,701 582.3,693 604.7,670.6C610,665.3 618.5,665.3 623.8,670.6C629,675.9 629,684.4 623.8,689.7M333.3,552.1C333.3,523.4 356.7,500 385.4,500C414.1,500 437.5,523.4 437.5,552.1C437.5,580.8 414.1,604.2 385.4,604.2C356.7,604.2 333.3,580.8 333.3,552.1M833.3,500C833.3,459.7 800.7,427.1 760.4,427.1C740.7,427.1 722.9,434.9 709.8,447.6C660,411.6 591.3,388.4 514.8,385.7L548,229.4L656.5,252.5C657.8,280.1 680.4,302.1 708.3,302.1C737.1,302.1 760.4,278.8 760.4,250C760.4,221.2 737.1,197.9 708.3,197.9C687.8,197.9 670.3,209.8 661.8,227L540.6,201.2C537.2,200.5 533.7,201.1 530.8,203C527.9,204.9 525.9,207.8 525.2,211.2L488.8,382.7C488.6,383.7 488.8,384.6 488.8,385.6C410.9,387.6 340.9,410.9 290.3,447.4C277.2,434.8 259.5,427.1 239.9,427.1C199.6,427.1 167,459.8 167,500C167,529.6 184.7,555.1 210.1,566.5C209,573.7 208.4,581.1 208.4,588.6C208.4,700.8 339,791.7 500.1,791.7C661.2,791.7 791.8,700.8 791.8,588.6C791.8,581.2 791.2,573.9 790.1,566.7C815.4,555.3 833.3,529.8 833.3,500" style="fill:white;fill-rule:nonzero;"/>
    </g>
</svg>
