<?xml version="1.0" encoding="UTF-8" standalone="no"?>
<!DOCTYPE svg PUBLIC "-//W3C//DTD SVG 1.1//EN" "http://www.w3.org/Graphics/SVG/1.1/DTD/svg11.dtd">
<svg width="100%" height="100%" viewBox="0 0 512 512" version="1.1" xmlns="http://www.w3.org/2000/svg" xmlns:xlink="http://www.w3.org/1999/xlink" xml:space="preserve" xmlns:serif="http://www.serif.com/" style="fill-rule:evenodd;clip-rule:evenodd;stroke-linejoin:round;stroke-miterlimit:2;">
    <g transform="matrix(0.707107,-0.707107,1.67812,1.67812,-310.593,-56.7421)">
        <path d="M193,198.688C193,195.549 186.951,193 179.5,193C172.049,193 166,195.549 166,198.688L166,325.312C166,328.451 172.049,331 179.5,331C186.951,331 193,328.451 193,325.312L193,198.688Z" style="fill:white;"/>
    </g>
    <g transform="matrix(0.707107,0.707107,-1.67812,1.67812,568.742,-310.593)">
        <path d="M193,198.688C193,195.549 186.951,193 179.5,193C172.049,193 166,195.549 166,198.688L166,325.312C166,328.451 172.049,331 179.5,331C186.951,331 193,328.451 193,325.312L193,198.688Z" style="fill:white;"/>
    </g>
</svg>
