<svg width="512" height="512" xmlns="http://www.w3.org/2000/svg">

 <g>
  <title>background</title>
  <rect fill="none" id="canvas_background" height="402" width="582" y="-1" x="-1"/>
 </g>
 <g>
  <title>Layer 1</title>
  <path fill="#ffffff" id="svg_1" d="m492,109.5c-17.399994,7.699997 -36,12.900002 -55.600006,15.300003c20,-12 35.399994,-31 42.600006,-53.600006c-18.700012,11.100006 -39.399994,19.200005 -61.5,23.5c-17.700012,-18.899994 -42.899994,-30.699997 -70.700012,-30.699997c-53.5,0 -96.800003,43.400002 -96.800003,96.899994c0,7.600006 0.799988,15 2.5,22.100006c-80.499985,-4 -151.899986,-42.600006 -199.599983,-101.300003c-8.300003,14.300003 -13.100002,31 -13.100002,48.699997c0,33.600006 17.100002,63.300003 43.100002,80.699997c-15.900002,-0.399994 -30.900002,-4.799988 -43.900002,-12.099991c0,0.399994 0,0.800003 0,1.199997c0,47 33.400002,86.099991 77.699997,95.000015c-8.099998,2.199982 -16.699997,3.399994 -25.5,3.399994c-6.199997,0 -12.299995,-0.600006 -18.199997,-1.800018c12.300003,38.5 48.099991,66.5 90.5,67.300018c-33.100006,26 -74.900009,41.5 -120.300011,41.5c-7.799999,0 -15.5,-0.5 -23.099998,-1.399994c42.800011,27.799988 93.700012,43.799988 148.300003,43.799988c178.200012,0 275.600006,-147.700012 275.600006,-275.800003c0,-4.199997 -0.100006,-8.399994 -0.299988,-12.5c18.899994,-13.699997 35.299988,-30.800003 48.299988,-50.199997z"/>
 </g>
</svg>